<?xml version="1.0"?>
<svg xmlns="http://www.w3.org/2000/svg" xmlns:xlink="http://www.w3.org/1999/xlink" version="1.1" id="Capa_1" x="0px" y="0px" viewBox="0 0 412.598 412.598" style="enable-background:new 0 0 412.598 412.598;" xml:space="preserve" width="512px" height="512px" class=""><g><g>
	<path d="M168.193,133.368c-15.313-4.43-28.75-10.873-40.492-19.456c-17.242,39.35-34.481,78.7-51.721,118.05   c23.16,23.492,56.965,24.82,95.414,26.332c24.457,0.959,49.746,1.953,73.94,8.951c15.313,4.43,28.748,10.869,40.49,19.451   l51.721-118.043c-23.16-23.492-56.963-24.82-95.411-26.332C217.676,141.361,192.386,140.367,168.193,133.368z" data-original="#000000" class="active-path" data-old_color="#000000" fill="#4ABDAC"/>
	<path d="M412.229,163.468c-3.547-4.08-7.438-6.063-11.894-6.063c-4.128,0-8.189,1.645-12.489,3.386   c-3.647,1.477-7.419,3.004-11.408,3.574c-0.573,0.082-1.048,0.486-1.22,1.038l-0.268,0.858c-0.205-0.038-0.401-0.081-0.593-0.126   c0.367-2.034-0.062-4.158-1.259-5.901c-32.289-46.994-81.796-48.94-129.673-50.821c-45.993-1.807-89.436-3.514-117.218-43.953   c-1.631-2.374-4.421-3.684-7.288-3.405c-0.682,0.064-1.341,0.222-1.968,0.45c-0.946-0.904-2.082-1.517-3.5-2.016l0.201-0.443   c0.173-0.382,0.179-0.818,0.017-1.204c-0.163-0.386-0.48-0.687-0.874-0.828c-4.888-1.761-9.101-2.018-12.818-2.243   c-7.201-0.438-11.548-0.702-15.461-11.162c-0.213-0.569-0.748-0.953-1.354-0.974c-0.602-0.044-1.166,0.327-1.417,0.88   l-9.708,21.438c-0.214,0.474-0.168,1.024,0.122,1.456c3.491,5.191,7.664,7.609,13.132,7.609h0c3.459,0,6.994-0.945,10.736-1.946   c3.8-1.017,7.73-2.067,11.759-2.143c0.58-0.011,1.101-0.355,1.339-0.884l0.369-0.817c0.576,0.182,1.086,0.383,1.55,0.636   c-22.858,52.163-45.712,104.327-68.565,156.492c-0.299-0.13-0.606-0.255-0.934-0.37l0.204-0.451   c0.172-0.381,0.176-0.816,0.013-1.201c-0.163-0.385-0.479-0.684-0.873-0.825c-4.887-1.76-9.1-2.015-12.817-2.24   c-7.202-0.437-11.549-0.7-15.462-11.161c-0.213-0.569-0.747-0.953-1.354-0.974c-0.608-0.045-1.166,0.327-1.417,0.88   c-3.237,7.143-6.473,14.288-9.708,21.439c-0.214,0.474-0.168,1.024,0.122,1.456c3.492,5.189,7.664,7.605,13.13,7.605   c3.459,0,6.996-0.946,10.739-1.948c3.801-1.017,7.73-2.068,11.759-2.145c0.578-0.011,1.098-0.352,1.337-0.879l0.093-0.204   c0.104-0.23,0.194-0.426,0.28-0.615c0.544,0.173,1.03,0.362,1.475,0.597c-0.128,1.769,0.326,3.557,1.36,5.063   c32.286,46.996,81.795,48.941,129.674,50.82c45.993,1.807,89.435,3.514,117.217,43.947c1.073,1.563,2.65,2.651,4.418,3.142   c0.529,1.523,1.457,2.701,2.82,3.873l-0.349,0.341c-0.299,0.293-0.462,0.697-0.449,1.115c0.012,0.419,0.198,0.813,0.515,1.088   c3.917,3.409,7.751,5.174,11.134,6.731c6.555,3.017,10.512,4.838,10.369,16.008c-0.008,0.607,0.352,1.159,0.909,1.398   c0.19,0.081,0.392,0.121,0.591,0.121c0.385,0,0.763-0.148,1.049-0.428l16.814-16.463c0.372-0.364,0.528-0.895,0.415-1.401   c-2.702-12.005-11.596-12.982-20.197-13.927c-3.911-0.43-7.955-0.874-11.737-2.264c-0.549-0.201-1.161-0.067-1.575,0.344   c-0.246,0.245-0.443,0.44-0.631,0.625c-0.281-0.227-0.54-0.45-0.775-0.68c0.181-0.299,0.344-0.609,0.486-0.934l69.579-158.803   c0.439,0.148,0.901,0.271,1.396,0.38l-0.146,0.463c-0.126,0.4-0.079,0.835,0.13,1.199c0.209,0.364,0.56,0.624,0.971,0.716   c2.565,0.58,5.102,0.85,7.98,0.85c1.79,0,3.43-0.103,5.017-0.202c1.367-0.086,2.659-0.167,3.875-0.167   c4.197,0,8.339,0.714,12.847,9.341c0.26,0.498,0.774,0.806,1.329,0.806c0.044,0,0.09-0.002,0.135-0.006   c0.604-0.055,1.117-0.469,1.298-1.049l6.995-22.468C412.684,164.402,412.571,163.861,412.229,163.468z M291.933,315.279   c-32.104-36.432-77.341-38.209-121.209-39.932c-44.616-1.752-86.829-3.408-114.677-40.416   c21.846-49.867,43.694-99.735,65.545-149.601c32.105,36.437,77.342,38.214,121.211,39.938   c44.614,1.752,86.826,3.408,114.675,40.416L291.933,315.279z" data-original="#000000" class="active-path" data-old_color="#000000" fill="#4ABDAC"/>
</g></g> </svg>
